# xmcd
# 
# Track frame offsets:
#     150
#     19742
#     51798
#     61993
#     74196
#     88132
#     114770
#     138217
#     158239
# 
# Disc length: 2431
# 
# Revision: 2
# Processed by: cddbd v1.5.2PL0 Copyright (c) Steve Scherf et al.
# Submitted via: BonkEnc v1.0.8
# 
DISCID=78097d09
DTITLE=Edward Vesala, Arto Melleri - Mau-Mau
DYEAR=1982
DGENRE=Big Band
TTITLE0=Minne olet matkalla (Prologi)
TTITLE1=Tunnetko miten mantereet liikkuvat yössä... (Hymni, Pimeys and Jalanjäljet hiekassa)
TTITLE2=Maailman reuna
TTITLE3=Sateenkaari viidakon yllä
TTITLE4=Lilla Svarta Umboda
TTITLE5=Virran jano 1 and 2
TTITLE6=Yksinäinen saksofoni
TTITLE7=Yön veljeskunta
TTITLE8=Mau-Mau
EXTD=
EXTT0=
EXTT1=
EXTT2=
EXTT3=
EXTT4=
EXTT5=
EXTT6=
EXTT7=
EXTT8=
PLAYORDER=
